<svg width="215" height="42" viewBox="0 0 215 42" fill="none" xmlns="http://www.w3.org/2000/svg">
<path d="M15.4725 17.1251C15.8523 17.6103 16.1373 18.1566 16.3272 18.7638C16.5174 19.3707 16.6125 20.018 16.6125 20.7061C16.6125 22.2229 16.1862 23.5179 15.3336 24.5898C14.3886 25.7837 13.1155 26.3805 11.5132 26.3805H0.80645V22.5113H10.82C11.2823 22.5113 11.6518 22.3344 11.9293 21.9806C12.1756 21.6672 12.2988 21.2773 12.2988 20.8119C12.2988 20.3567 12.1807 19.983 11.9443 19.6891C11.6774 19.3555 11.3025 19.1887 10.82 19.1887H0.80645V15.0614H10.82C11.2922 15.0614 11.6569 14.903 11.9139 14.5859C12.1705 14.2685 12.2988 13.8935 12.2988 13.4604C12.2988 12.9974 12.1756 12.6099 11.9293 12.2979C11.6518 11.9454 11.2823 11.7688 10.82 11.7688H0.80645V7.85449H11.5132C13.1052 7.85449 14.3835 8.46071 15.3493 9.67215C16.2222 10.773 16.6587 12.0859 16.6587 13.6107C16.6587 14.2874 16.5585 14.9286 16.3583 15.5345C16.1578 16.1404 15.8626 16.6708 15.4725 17.1251Z" fill="white"/>
<path d="M34.0974 26.3803H26.5949C24.2228 26.3803 22.343 25.794 20.9566 24.6217C19.8679 23.7021 19.0978 22.4485 18.6458 20.862C18.3478 19.8208 18.199 18.6889 18.199 17.466C18.199 17.1833 18.2017 16.9835 18.2068 16.8669C18.212 16.751 18.2246 16.6472 18.2455 16.5562V7.85449H22.4046V16.5545C22.4046 18.1208 22.7385 19.439 23.4061 20.5102C24.1766 21.7432 25.2393 22.3596 26.5949 22.3596H34.0974V26.3803Z" fill="white"/>
<path d="M54.4018 26.3805H49.9498L45.0352 12.1181C45.0044 11.9664 44.8966 11.8903 44.7119 11.8903C44.537 11.8903 44.4087 11.9664 44.3266 12.1181L39.5201 26.3805H35.0065C35.2628 25.5004 35.815 23.7508 36.6625 21.1308C37.5097 18.5112 38.3339 16.0327 39.1352 13.6961C40.0286 11.0967 40.5726 9.6504 40.7679 9.35655C41.1378 8.84064 41.677 8.44638 42.3856 8.1731C43.0942 7.90015 43.8644 7.76367 44.6965 7.76367C45.5282 7.76367 46.296 7.90015 46.9994 8.1731C47.7029 8.44638 48.2394 8.84064 48.6096 9.35655C48.8351 9.6605 49.3897 11.0967 50.2731 13.6655C50.8175 15.2435 51.6287 17.722 52.7071 21.1005C53.3644 23.154 53.9293 24.9137 54.4018 26.3805Z" fill="white"/>
<path d="M69.8229 26.3803H60.6261C58.418 26.3803 56.672 25.4351 55.3883 23.5454C54.238 21.8474 53.6629 19.7551 53.6629 17.2689C53.6629 14.7422 54.2483 12.5897 55.4191 10.8108C56.7131 8.83981 58.4484 7.85449 60.6261 7.85449H69.8229V11.7688H61.3193C60.2922 11.7688 59.4861 12.3042 58.9007 13.3748C58.3769 14.3348 58.1148 15.5217 58.1148 16.9356C58.1148 18.39 58.3868 19.6328 58.9315 20.6626C59.5268 21.7938 60.323 22.3596 61.3193 22.3596H69.8229V26.3803Z" fill="white"/>
<path d="M87.6317 26.7854L75.7079 22.1466V26.3797H71.5485V7.8391H75.7079V12.3599L87.6317 7.69824V12.1439L76.3395 16.8777V17.5759L87.6317 22.4158V26.7854Z" fill="white"/>
<path d="M141.287 11.7688H131.274C130.822 11.7688 130.465 11.9376 130.203 12.2749C129.941 12.6122 129.81 13.0075 129.81 13.4604C129.81 13.9035 129.936 14.2809 130.188 14.5933C130.439 14.9057 130.801 15.0614 131.274 15.0614H137.174C138.765 15.0614 140.024 15.648 140.948 16.8214C141.78 17.8734 142.196 19.1731 142.196 20.7208C142.196 22.2585 141.78 23.5582 140.948 24.62C140.024 25.7937 138.765 26.3803 137.174 26.3803H126.436V22.435H136.496C136.927 22.435 137.266 22.2608 137.513 21.9121C137.759 21.5626 137.883 21.1606 137.883 20.7057C137.883 20.2504 137.764 19.8636 137.528 19.5451C137.292 19.2264 136.948 19.067 136.496 19.067H130.58C128.978 19.067 127.71 18.486 126.775 17.3245C125.933 16.2842 125.512 14.996 125.512 13.4607C125.512 11.9457 125.933 10.6628 126.775 9.61181C127.72 8.44049 128.988 7.85449 130.58 7.85449H141.287V11.7688Z" fill="white"/>
<path d="M159.096 26.7854L147.172 22.1466V26.3797H143.012V7.8391H147.172V12.3599L159.096 7.69824V12.1439L147.803 16.8777V17.5759L159.096 22.4158V26.7854Z" fill="white"/>
<path d="M176.581 19.7398C176.581 21.8823 175.739 23.5904 174.054 24.8639C172.534 26.016 170.675 26.5926 168.478 26.5926C166.342 26.5926 164.544 26.0264 163.086 24.8942C161.453 23.6312 160.636 21.913 160.636 19.7398V7.854H164.719V19.0699C164.719 20.0401 165.14 20.8181 165.982 21.4041C166.753 21.9399 167.682 22.2075 168.771 22.2075C169.818 22.2075 170.701 21.95 171.42 21.4345C172.221 20.8586 172.622 20.0707 172.622 19.0699V7.854H176.581V19.7398Z" fill="white"/>
<path d="M194.174 26.3803H186.671C184.299 26.3803 182.42 25.794 181.033 24.6217C179.944 23.7021 179.174 22.4485 178.722 20.862C178.424 19.8208 178.276 18.6889 178.276 17.466C178.276 17.1833 178.278 16.9835 178.283 16.8669C178.288 16.751 178.301 16.6472 178.322 16.5562V7.85449H182.481V16.5545C182.481 18.1208 182.815 19.439 183.483 20.5102C184.253 21.7432 185.316 22.3596 186.671 22.3596H194.174V26.3803Z" fill="white"/>
<path d="M211.752 26.3803H204.249C201.877 26.3803 199.997 25.794 198.611 24.6217C197.522 23.7021 196.752 22.4485 196.3 20.862C196.002 19.8208 195.853 18.6889 195.853 17.466C195.853 17.1833 195.856 16.9835 195.861 16.8669C195.866 16.751 195.879 16.6472 195.899 16.5562V7.85449H200.059V16.5545C200.059 18.1208 200.393 19.439 201.06 20.5102C201.831 21.7432 202.894 22.3596 204.249 22.3596H211.752V26.3803Z" fill="white"/>
<path d="M1.45146 37.6616H2.5939V38.93H3.66345V37.6616H4.80555V41.313H3.66345V39.8658H2.5939V41.313H1.45146V37.6616Z" fill="white"/>
<path d="M11.9066 37.6616H14.9754V38.5977H13.049V39.053H14.7988V39.922H13.049V40.3769H15.0325V41.313H11.9066V37.6616Z" fill="white"/>
<path d="M23.0998 37.6616H24.2162L25.5663 41.313H24.3825L24.2268 40.7914H23.0478L22.8819 41.313H21.7343L23.0998 37.6616ZM23.9979 40.009L23.6657 38.8842H23.6555L23.2972 40.009H23.9979Z" fill="white"/>
<path d="M34.1782 41.313H32.9009L31.7947 37.6616H32.9474L33.5551 39.8759H33.5654L34.1624 37.6616H35.336L34.1782 41.313Z" fill="white"/>
<path d="M42.9048 39.9682L41.6016 37.6616H42.8634L43.4813 39.0068L44.1249 37.6616H45.3765L44.0472 39.9682V41.313H42.9048V39.9682Z" fill="white"/>
<path d="M61.1892 40.086C61.1892 40.178 61.2049 40.2599 61.2306 40.3266C61.3137 40.5463 61.5631 40.5924 61.776 40.5924C61.9628 40.5924 62.2485 40.5308 62.2485 40.2599C62.2485 40.0705 62.0873 40.0196 61.4489 39.8403C60.8621 39.6769 60.1922 39.5185 60.1922 38.7822C60.1922 37.9385 60.9243 37.5752 61.6877 37.5752C62.4928 37.5752 63.2037 37.8768 63.2352 38.7667H62.1551C62.1756 38.6289 62.1137 38.5366 62.0199 38.4756C61.9265 38.4085 61.7965 38.3833 61.6826 38.3833C61.5269 38.3833 61.2723 38.424 61.2723 38.6289C61.2932 38.8894 61.8228 38.9457 62.3473 39.0889C62.8715 39.2321 63.3909 39.4723 63.3909 40.1423C63.3909 41.0935 62.503 41.4005 61.6774 41.4005C61.2566 41.4005 60.0573 41.2522 60.0467 40.086H61.1892Z" fill="white"/>
<path d="M70.2585 37.6616H72.1694C73.1766 37.6616 73.5297 38.3878 73.5297 38.9094C73.5297 39.7943 72.9272 40.2088 72.0756 40.2088H71.4009V41.313H70.2585V37.6616ZM71.4009 39.3391H71.8423C72.1382 39.3391 72.4496 39.3185 72.4496 38.9505C72.4496 38.6179 72.1902 38.5977 71.9097 38.5977H71.4009V39.3391Z" fill="white"/>
<path d="M82.1992 37.5752C83.3262 37.5752 84.0789 38.3728 84.0789 39.4875C84.0789 40.6026 83.3262 41.4005 82.1992 41.4005C81.0725 41.4005 80.3194 40.6026 80.3194 39.4875C80.3194 38.3728 81.0725 37.5752 82.1992 37.5752ZM82.1992 40.49C82.49 40.49 82.9365 40.3006 82.9365 39.4875C82.9365 38.6747 82.49 38.4854 82.1992 38.4854C81.9087 38.4854 81.4618 38.6747 81.4618 39.4875C81.4618 40.3006 81.9087 40.49 82.1992 40.49Z" fill="white"/>
<path d="M91.076 37.6616H93.2517C93.9008 37.6616 94.4616 38.0148 94.4616 38.7052C94.4616 39.0833 94.2851 39.4823 93.906 39.6204C94.2177 39.738 94.4096 40.0757 94.4514 40.5306C94.4667 40.7099 94.4719 41.1442 94.5759 41.313H93.4334C93.3763 41.1287 93.3558 40.94 93.34 40.7506C93.3089 40.4029 93.2778 40.0396 92.8258 40.0396H92.2184V41.313H91.076V37.6616ZM92.2184 39.2572H92.8155C93.0283 39.2572 93.3192 39.2215 93.3192 38.8939C93.3192 38.6638 93.1891 38.531 92.7532 38.531H92.2184V39.2572Z" fill="white"/>
<path d="M102.207 38.5977H101.168V37.6616H104.388V38.5977H103.349V41.313H102.207V38.5977Z" fill="white"/>
<path d="M112.231 40.086C112.231 40.178 112.247 40.2599 112.273 40.3266C112.356 40.5463 112.606 40.5924 112.818 40.5924C113.005 40.5924 113.291 40.5308 113.291 40.2599C113.291 40.0705 113.13 40.0196 112.491 39.8403C111.905 39.6769 111.234 39.5185 111.234 38.7822C111.234 37.9385 111.967 37.5752 112.73 37.5752C113.535 37.5752 114.246 37.8768 114.277 38.7667H113.197C113.218 38.6289 113.156 38.5366 113.062 38.4756C112.969 38.4085 112.839 38.3833 112.725 38.3833C112.569 38.3833 112.315 38.424 112.315 38.6289C112.335 38.8894 112.865 38.9457 113.39 39.0889C113.914 39.2321 114.433 39.4723 114.433 40.1423C114.433 41.0935 113.545 41.4005 112.719 41.4005C112.299 41.4005 111.1 41.2522 111.089 40.086H112.231Z" fill="white"/>
<path d="M129.55 37.6616H130.718L131.798 39.6154H131.809V37.6616H132.888V41.313H131.777L130.64 39.3185H130.629V41.313H129.55V37.6616Z" fill="white"/>
<path d="M143.365 39.9018C143.365 40.9141 142.809 41.4003 141.677 41.4003C140.546 41.4003 139.984 40.9141 139.984 39.9018V37.6616H141.127V39.6514C141.127 40.0245 141.127 40.4898 141.682 40.4898C142.223 40.4898 142.223 40.0245 142.223 39.6514V37.6616H143.365V39.9018Z" fill="white"/>
<path d="M151.323 38.5977H150.284V37.6616H153.503V38.5977H152.465V41.313H151.323V38.5977Z" fill="white"/>
<path d="M160.439 37.6616H162.614C163.264 37.6616 163.824 38.0148 163.824 38.7052C163.824 39.0833 163.648 39.4823 163.269 39.6204C163.581 39.738 163.773 40.0757 163.814 40.5306C163.83 40.7099 163.835 41.1442 163.939 41.313H162.796C162.739 41.1287 162.719 40.94 162.703 40.7506C162.672 40.4029 162.641 40.0396 162.189 40.0396H161.581V41.313H160.439V37.6616ZM161.581 39.2572H162.178C162.391 39.2572 162.682 39.2215 162.682 38.8939C162.682 38.6638 162.552 38.531 162.116 38.531H161.581V39.2572Z" fill="white"/>
<path d="M171.938 37.6616H170.796V41.313H171.938V37.6616Z" fill="white"/>
<path d="M179.907 38.5977H178.868V37.6616H182.087V38.5977H181.049V41.313H179.907V38.5977Z" fill="white"/>
<path d="M190.165 37.6616H189.023V41.313H190.165V37.6616Z" fill="white"/>
<path d="M199.038 37.5752C200.164 37.5752 200.917 38.3728 200.917 39.4875C200.917 40.6026 200.164 41.4005 199.038 41.4005C197.911 41.4005 197.158 40.6026 197.158 39.4875C197.158 38.3728 197.911 37.5752 199.038 37.5752ZM199.038 40.49C199.329 40.49 199.775 40.3006 199.775 39.4875C199.775 38.6747 199.329 38.4854 199.038 38.4854C198.747 38.4854 198.3 38.6747 198.3 39.4875C198.3 40.3006 198.747 40.49 199.038 40.49Z" fill="white"/>
<path d="M207.92 37.6616H209.088L210.168 39.6154H210.178V37.6616H211.258V41.313H210.147L209.01 39.3185H209V41.313H207.92V37.6616Z" fill="white"/>
<path d="M123.843 20.8974C122.793 19.8983 122.742 18.6869 123.094 17.3096C123.235 16.7614 123.516 12.8009 123.516 12.6604C123.516 11.9683 123.558 10.583 123.459 9.93899C123.04 7.19501 122.339 6.58003 120.741 5.00602C119.233 3.52029 117.134 2.52083 115.115 1.79835C114.507 1.581 113.877 1.42094 113.255 1.24403C111.274 0.679932 109.084 0.576144 107.472 0.567383H107.471C105.858 0.576144 103.668 0.679595 101.687 1.24369C101.065 1.42094 100.436 1.58067 99.8274 1.79835C97.8084 2.52083 95.7101 3.52029 94.2016 5.00602C92.603 6.58003 91.9023 7.19501 91.4832 9.93899C91.3847 10.583 91.7077 16.7614 91.8479 17.3096C92.2003 18.6869 92.1497 19.8983 91.0993 20.8974C90.7801 21.201 90.7791 21.4898 90.9347 21.8521C91.1972 22.4633 91.3368 23.823 91.7012 24.3804C92.0967 24.9853 92.9695 25.5655 93.3274 25.795C93.4841 25.8954 94.0883 26.2176 94.2347 26.2809C94.4698 26.3827 96.4002 26.598 96.6739 26.598C96.9267 26.598 99.6995 26.8915 99.6995 28.1929C99.6995 29.0138 99.5746 29.1799 99.7539 29.9961C99.821 30.3027 100.209 31.7093 100.189 31.778C100.174 31.8255 100.172 32.4146 100.17 32.4641C100.164 32.6157 100.168 32.7701 100.212 32.915C100.257 33.0602 100.348 33.1967 100.482 33.2708C100.642 33.3594 100.953 33.3486 101.137 33.3325C101.208 33.3261 101.284 33.3176 101.342 33.2755C101.378 33.2502 101.407 32.3869 101.447 31.9674C101.465 31.7726 101.509 31.8531 101.514 31.8333C101.517 31.8414 101.567 31.7864 101.588 31.9863C101.631 32.3822 101.657 33.1711 101.67 33.1822C101.709 33.2162 101.765 33.2213 101.818 33.2246C101.938 33.2321 102.143 33.2385 102.251 33.1845C102.298 33.1609 102.339 33.1269 102.386 33.1027C102.489 33.0494 102.532 33.0477 102.646 33.0218C102.681 33.0137 102.717 33.0026 102.743 32.9786C102.772 32.9524 102.787 32.9133 102.795 32.8745C102.809 32.8024 102.829 32.7266 102.807 32.6565C102.798 32.6295 102.76 31.9438 102.768 31.5674C102.773 31.3433 102.826 31.3558 102.821 31.3332C102.831 31.3689 102.854 31.3585 102.881 31.5738C102.929 31.965 102.991 32.6774 103.014 32.7663C103.024 32.8014 103.01 32.8412 103.028 32.8732C103.054 32.9187 103.115 32.9365 103.169 32.9308C103.223 32.9251 103.272 32.9011 103.322 32.8816C103.449 32.8324 103.509 32.8098 103.646 32.8162C103.779 32.8223 103.844 32.8536 103.96 32.7916C104.068 32.734 104.12 32.6093 104.122 32.4914C104.123 32.4489 104.108 31.8538 104.128 31.5357C104.143 31.3073 104.197 31.3292 104.19 31.2992C104.202 31.2975 104.21 31.4026 104.213 31.4215C104.229 31.5529 104.334 32.6009 104.437 32.6865C104.539 32.7714 104.685 32.7748 104.819 32.7738C105.002 32.7721 105.028 32.7707 105.211 32.7694C105.267 32.769 105.323 32.7684 105.374 32.7502C105.424 32.7327 105.467 32.6996 105.504 32.6622C105.6 32.5638 105.66 31.7302 105.714 31.3137C105.738 31.1226 105.785 31.2247 105.791 31.1607C105.792 31.2008 105.834 31.1378 105.849 31.3389C105.875 31.6911 105.881 32.3782 105.886 32.4482C105.89 32.5022 105.897 32.5615 105.939 32.5982C105.966 32.6221 106.002 32.6322 106.038 32.6383C106.31 32.6845 106.665 32.5456 106.937 32.5851C107.049 32.6012 107.161 32.6474 107.273 32.6268C107.351 32.6124 107.371 31.8505 107.402 31.4215C107.418 31.196 107.462 31.1779 107.466 31.1583C107.531 31.099 107.509 31.378 107.512 31.4468C107.52 31.5037 107.55 32.6046 107.669 32.6268C107.781 32.6474 107.893 32.6012 108.005 32.5851C108.278 32.5456 108.633 32.6845 108.904 32.6383C108.94 32.6322 108.977 32.6221 109.003 32.5982C109.045 32.5615 109.052 32.5022 109.056 32.4482C109.061 32.3792 109.058 31.7211 109.085 31.3706C109.1 31.1637 109.15 31.2018 109.151 31.1607C109.157 31.226 109.174 31.1617 109.2 31.3581C109.253 31.7736 109.343 32.5648 109.438 32.6622C109.475 32.6996 109.518 32.7327 109.568 32.7502C109.62 32.7684 109.676 32.769 109.731 32.7694C109.914 32.7707 109.941 32.7721 110.124 32.7738C110.257 32.7748 110.404 32.7714 110.505 32.6865C110.569 32.6336 110.613 31.8784 110.664 31.4912C110.695 31.2496 110.748 31.2985 110.753 31.2992C110.746 31.3278 110.755 31.2742 110.768 31.4912C110.789 31.8151 110.819 32.4479 110.82 32.4914C110.823 32.6093 110.874 32.734 110.982 32.7916C111.098 32.8536 111.163 32.8223 111.296 32.8162C111.433 32.8098 111.493 32.8324 111.62 32.8816C111.67 32.9011 111.72 32.9251 111.773 32.9308C111.828 32.9365 111.888 32.9187 111.914 32.8732C111.933 32.8412 111.919 32.8014 111.928 32.7663C111.95 32.6848 112.003 31.962 112.049 31.5866C112.081 31.3261 112.109 31.3746 112.121 31.3332C112.115 31.3585 112.159 31.3494 112.165 31.6119C112.173 31.9721 112.144 32.6319 112.136 32.6565C112.114 32.7266 112.133 32.8024 112.148 32.8745C112.156 32.9133 112.17 32.9524 112.199 32.9786C112.226 33.0026 112.262 33.0137 112.297 33.0218C112.41 33.0477 112.453 33.0494 112.557 33.1027C112.603 33.1269 112.645 33.1609 112.692 33.1845C112.8 33.2385 113.004 33.2321 113.125 33.2246C113.177 33.2213 113.233 33.2162 113.273 33.1822C113.285 33.1714 113.316 32.4449 113.358 32.0499C113.38 31.839 113.426 31.8417 113.428 31.8333C113.433 31.8538 113.487 31.7992 113.506 32.0055C113.545 32.4247 113.565 33.2509 113.6 33.2755C113.658 33.3176 113.734 33.3261 113.806 33.3325C113.989 33.3486 114.301 33.3594 114.461 33.2708C114.595 33.1967 114.685 33.0602 114.73 32.915C114.775 32.7701 114.778 32.6157 114.773 32.4641C114.771 32.4146 114.768 31.8255 114.754 31.778C114.733 31.7093 115.121 30.3027 115.189 29.9961C115.368 29.1799 115.243 29.0138 115.243 28.1929C115.243 26.8915 117.964 26.598 118.268 26.598C118.551 26.598 120.473 26.3827 120.708 26.2809C120.854 26.2176 121.458 25.8954 121.615 25.795C121.973 25.5655 122.801 25.0045 123.241 24.3804C123.625 23.8358 123.745 22.4633 124.008 21.8521C124.163 21.4898 124.162 21.201 123.843 20.8974ZM109.733 26.2722C109.695 26.4915 109.478 26.7685 109.273 26.8518C108.977 26.9724 108.638 26.8979 108.412 26.5893C108.253 26.3726 108.061 26.1798 107.89 25.9709C107.5 25.4934 107.423 25.4971 107.052 25.9709C106.886 26.1832 106.689 26.3723 106.53 26.5893C106.304 26.8976 105.966 26.9724 105.669 26.8518C105.465 26.7685 105.247 26.4915 105.21 26.2722C104.918 24.5624 105.197 22.9226 106.039 21.4059C106.327 20.8876 106.521 20.2198 107.179 19.9495C107.274 19.9108 107.373 19.8848 107.471 19.8713C107.57 19.8848 107.668 19.9108 107.763 19.9495C108.334 20.184 108.703 20.9992 108.903 21.3604C109.745 22.8771 110.024 24.5624 109.733 26.2722ZM108.525 19.2988C108.525 19.0717 109.162 18.4843 109.893 18.7384C110.152 18.8284 111.074 18.8153 111.27 18.7917C111.593 18.7529 111.982 18.6063 112.224 18.4446C113.162 17.8195 113.103 17.6483 113.94 16.9036C114.964 15.9931 115.862 14.9485 116.852 13.9992C117.269 13.5979 117.755 13.2478 118.26 12.9576C118.623 12.749 119.91 12.6351 120.329 12.5576C120.805 12.469 121.206 12.681 121.185 13.1659C121.161 13.729 121.126 14.3072 120.974 14.846C120.526 16.4453 120.17 18.3624 119.244 19.7547C119.149 19.8983 118.658 20.3647 118.507 20.458C117.734 20.9348 117.038 21.3843 116.172 21.5997C116.054 21.629 115.365 21.2539 115.206 21.1916C113.956 20.7 113.212 20.6464 111.877 20.5311C111.647 20.5112 109.549 19.9229 108.525 19.2988ZM106.418 19.2988C105.393 19.9229 103.296 20.5112 103.065 20.5311C101.731 20.6464 100.986 20.7 99.7364 21.1916C99.5777 21.2539 98.8886 21.629 98.7706 21.5997C97.9046 21.3843 97.2087 20.9348 96.4354 20.458C96.2838 20.3647 95.7932 19.8983 95.6981 19.7547C94.7722 18.3624 94.4164 16.4453 93.9679 14.846C93.8166 14.3072 93.7811 13.729 93.7571 13.1659C93.7366 12.681 94.1372 12.469 94.6135 12.5576C95.0323 12.6351 96.3198 12.749 96.6828 12.9576C97.1871 13.2478 97.673 13.5979 98.0911 13.9992C99.0802 14.9485 99.979 15.9931 101.002 16.9036C101.84 17.6483 101.78 17.8195 102.718 18.4446C102.96 18.6063 103.349 18.7529 103.672 18.7917C103.868 18.8153 104.79 18.8284 105.049 18.7384C105.78 18.4843 106.418 19.097 106.418 19.2988Z" fill="white"/>
<path d="M212.233 23.5231V22.5522H211.88V22.375H212.791V22.5522H212.438V23.5231H212.233Z" fill="white"/>
<path d="M213.971 23.5231V22.6365L213.615 23.5231H213.527L213.169 22.6365V23.5231H212.965V22.375H213.253L213.571 23.1632L213.888 22.375H214.176V23.5231H213.971Z" fill="white"/>
</svg>
