<svg width="29" height="8" viewBox="0 0 29 8" fill="none" xmlns="http://www.w3.org/2000/svg">
<path fill-rule="evenodd" clip-rule="evenodd" d="M3.18111 0L0 7.24674H3.80824L4.28035 6.09131H5.35949L5.8316 7.24674H10.0234V6.36488L10.3969 7.24674H12.5652L12.9387 6.34624V7.24674H21.6566L22.7166 6.12132L23.7092 7.24674L28.1868 7.25606L24.9957 3.6436L28.1868 0H23.7786L22.7467 1.10463L21.7854 0H12.3016L11.4872 1.87045L10.6537 0H6.85343V0.851856L6.43068 0H3.18111ZM3.91801 1.02881H5.77432L7.88436 5.94286V1.02881H9.91787L11.5476 4.55216L13.0496 1.02881H15.073V6.22883H13.8418L13.8318 2.15412L12.0368 6.22883H10.9355L9.13054 2.15412V6.22883H6.59776L6.11759 5.06305H3.52341L3.04423 6.2278H1.68719L3.91801 1.02881ZM21.2055 1.02881H16.1993V6.22576H21.128L22.7166 4.5034L24.2477 6.22576H25.8483L23.5219 3.64234L25.8483 1.02881H24.3172L22.7367 2.73138L21.2055 1.02881ZM4.82099 1.90869L3.96631 3.98542H5.67467L4.82099 1.90869ZM17.4356 3.05515V2.10589V2.10498H20.5593L21.9223 3.62309L20.4989 5.1495H17.4356V4.11318H20.1667V3.05515H17.4356Z" fill="white"/>
</svg>
