<svg width="25" height="11" viewBox="0 0 25 11" fill="none" xmlns="http://www.w3.org/2000/svg">
<path fill-rule="evenodd" clip-rule="evenodd" d="M1.66968 0H2.82527V10.8252H1.66968V0Z" fill="black"/>
<path fill-rule="evenodd" clip-rule="evenodd" d="M3.19064 0H3.54752V10.8252H3.19064V0Z" fill="black"/>
<path fill-rule="evenodd" clip-rule="evenodd" d="M3.8598 0H4.50133V10.8252H3.8598V0Z" fill="black"/>
<path fill-rule="evenodd" clip-rule="evenodd" d="M5.11945 0H5.47845V10.8252H5.11945V0Z" fill="black"/>
<path fill-rule="evenodd" clip-rule="evenodd" d="M5.63354 0H5.9097V10.8252H5.63354V0Z" fill="black"/>
<path fill-rule="evenodd" clip-rule="evenodd" d="M0.790222 0H1.14922V10.8252H0.790222V0Z" fill="black"/>
<path fill-rule="evenodd" clip-rule="evenodd" d="M0 0H0.641526V10.8252H0V0Z" fill="black"/>
<path fill-rule="evenodd" clip-rule="evenodd" d="M7.82364 0H8.98136V10.8252H7.82364V0Z" fill="black"/>
<path fill-rule="evenodd" clip-rule="evenodd" d="M9.3446 0H9.7036V10.8252H9.3446V0Z" fill="black"/>
<path fill-rule="evenodd" clip-rule="evenodd" d="M10.0159 0H10.6574V10.8252H10.0159V0Z" fill="black"/>
<path fill-rule="evenodd" clip-rule="evenodd" d="M11.2756 0H11.6324V10.8252H11.2756V0Z" fill="black"/>
<path fill-rule="evenodd" clip-rule="evenodd" d="M11.7896 0H12.0658V10.8252H11.7896V0Z" fill="black"/>
<path fill-rule="evenodd" clip-rule="evenodd" d="M6.94635 0H7.30323V10.8252H6.94635V0Z" fill="black"/>
<path fill-rule="evenodd" clip-rule="evenodd" d="M6.15613 0H6.79765V10.8252H6.15613V0Z" fill="black"/>
<path fill-rule="evenodd" clip-rule="evenodd" d="M12.5204 0H13.1598V10.8252H12.5204V0Z" fill="black"/>
<path fill-rule="evenodd" clip-rule="evenodd" d="M13.7779 0H14.1369V10.8252H13.7779V0Z" fill="black"/>
<path fill-rule="evenodd" clip-rule="evenodd" d="M14.2941 0H14.5682V10.8252H14.2941V0Z" fill="black"/>
<path fill-rule="evenodd" clip-rule="evenodd" d="M15.6048 0H15.9638V10.8252H15.6048V0Z" fill="black"/>
<path fill-rule="evenodd" clip-rule="evenodd" d="M14.8146 0H15.4561V10.8252H14.8146V0Z" fill="black"/>
<path fill-rule="evenodd" clip-rule="evenodd" d="M16.4396 0H16.7986V10.8252H16.4396V0Z" fill="black"/>
<path fill-rule="evenodd" clip-rule="evenodd" d="M16.9537 0H17.2299V10.8252H16.9537V0Z" fill="black"/>
<path fill-rule="evenodd" clip-rule="evenodd" d="M18.2644 0H18.6234V10.8252H18.2644V0Z" fill="black"/>
<path fill-rule="evenodd" clip-rule="evenodd" d="M17.4742 0H18.1157V10.8252H17.4742V0Z" fill="black"/>
<path fill-rule="evenodd" clip-rule="evenodd" d="M18.9356 0H20.0912V10.8252H18.9356V0Z" fill="black"/>
<path fill-rule="evenodd" clip-rule="evenodd" d="M20.4566 0H20.8135V10.8252H20.4566V0Z" fill="black"/>
<path fill-rule="evenodd" clip-rule="evenodd" d="M21.1258 0H21.7673V10.8252H21.1258V0Z" fill="black"/>
<path fill-rule="evenodd" clip-rule="evenodd" d="M22.3854 0H22.7444V10.8252H22.3854V0Z" fill="black"/>
<path fill-rule="evenodd" clip-rule="evenodd" d="M22.8995 0H23.1756V10.8252H22.8995V0Z" fill="black"/>
<path fill-rule="evenodd" clip-rule="evenodd" d="M23.6302 0H24.2718V10.8252H23.6302V0Z" fill="black"/>
<path fill-rule="evenodd" clip-rule="evenodd" d="M1.30853 10.8486H23.4667V4.78174H1.30853V10.8486Z" fill="white"/>
<path d="M1.72488 10.617V5.12793H3.78542C4.20389 5.12793 4.53953 5.18316 4.79444 5.29362C5.04722 5.40408 5.24478 5.57615 5.38923 5.80769C5.53368 6.03711 5.60591 6.27928 5.60591 6.53207C5.60591 6.76573 5.54218 6.98666 5.41472 7.19483C5.28727 7.40089 5.09608 7.5687 4.83905 7.69616C5.17043 7.79387 5.42747 7.95957 5.60378 8.19536C5.78222 8.42903 5.87144 8.70731 5.87144 9.02595C5.87144 9.28298 5.81621 9.52302 5.70787 9.74394C5.59953 9.96487 5.4657 10.1348 5.30638 10.2559C5.14707 10.3748 4.94526 10.4662 4.70522 10.5278C4.46305 10.5894 4.16778 10.6191 3.8194 10.6191H1.72488V10.617ZM2.4535 7.43488H3.64097C3.96385 7.43488 4.19327 7.41363 4.33347 7.37115C4.51828 7.31592 4.65849 7.22457 4.75195 7.09712C4.84542 6.96966 4.89215 6.81034 4.89215 6.61704C4.89215 6.43435 4.84967 6.27291 4.76045 6.13483C4.67336 5.99463 4.54802 5.89904 4.38658 5.84805C4.22514 5.79707 3.94473 5.77158 3.55175 5.77158H2.4535V7.43488ZM2.4535 9.97336H3.82153C4.05732 9.97336 4.22089 9.96487 4.31648 9.94575C4.48217 9.91601 4.62237 9.86715 4.73496 9.79705C4.84754 9.72695 4.93889 9.62499 5.01324 9.49116C5.08546 9.35733 5.12157 9.20226 5.12157 9.02807C5.12157 8.82202 5.06847 8.6457 4.96225 8.49276C4.85817 8.33981 4.71159 8.23572 4.52466 8.17412C4.33985 8.11251 4.07007 8.08277 3.72169 8.08277H2.45138V9.97336H2.4535Z" fill="black"/>
<path d="M6.5321 8.62699C6.5321 7.89199 6.73603 7.34818 7.14602 6.99343C7.48802 6.70028 7.90438 6.55371 8.3972 6.55371C8.94314 6.55371 9.38923 6.73215 9.73761 7.09115C10.0839 7.44802 10.2581 7.94298 10.2581 8.57176C10.2581 9.0837 10.1816 9.48306 10.0286 9.77621C9.87569 10.0694 9.65264 10.2967 9.35737 10.4581C9.06422 10.6195 8.74346 10.7003 8.3972 10.7003C7.84065 10.7003 7.3903 10.5218 7.04617 10.1671C6.70417 9.8102 6.5321 9.29613 6.5321 8.62699ZM7.22249 8.62911C7.22249 9.13681 7.33295 9.51918 7.556 9.76984C7.77904 10.0226 8.05945 10.1501 8.3972 10.1501C8.73284 10.1501 9.01111 10.0226 9.23416 9.76984C9.45721 9.51493 9.56767 9.12831 9.56767 8.60787C9.56767 8.11717 9.45508 7.74542 9.23204 7.49476C9.00899 7.24197 8.73071 7.11452 8.3972 7.11452C8.05945 7.11452 7.77904 7.23985 7.556 7.49051C7.33295 7.74117 7.22249 8.12141 7.22249 8.62911Z" fill="black"/>
<path d="M11.0334 10.617V5.12793H11.7089V10.617H11.0334Z" fill="black"/>
<path d="M15.4667 9.32799L16.1635 9.41934C16.0551 9.82507 15.8512 10.1395 15.5559 10.3646C15.2585 10.5877 14.8804 10.7003 14.4195 10.7003C13.8395 10.7003 13.3786 10.5218 13.0387 10.1628C12.6988 9.80595 12.5289 9.30463 12.5289 8.65885C12.5289 7.99183 12.7009 7.47352 13.0429 7.10602C13.3871 6.7364 13.8332 6.55371 14.3812 6.55371C14.9123 6.55371 15.3456 6.73427 15.6813 7.0954C16.0169 7.45652 16.1868 7.96634 16.1868 8.62062C16.1868 8.66098 16.1847 8.72045 16.1826 8.79905H13.2193C13.2447 9.23453 13.368 9.57016 13.5889 9.8017C13.8098 10.0332 14.0881 10.1501 14.4173 10.1501C14.6638 10.1501 14.8741 10.0842 15.0482 9.95465C15.2267 9.82295 15.3648 9.61477 15.4667 9.32799ZM13.2575 8.24887H15.4731C15.4434 7.91324 15.3584 7.6647 15.2182 7.49688C15.0058 7.23772 14.7254 7.10814 14.3855 7.10814C14.0753 7.10814 13.8162 7.21223 13.6059 7.41828C13.3977 7.62221 13.2809 7.90049 13.2575 8.24887Z" fill="black"/>
<path d="M18.481 10.0137L18.5724 10.6085C18.3833 10.6489 18.2134 10.668 18.0647 10.668C17.8204 10.668 17.6313 10.6298 17.4954 10.5512C17.3616 10.4726 17.266 10.3727 17.2107 10.2453C17.1555 10.1178 17.13 9.85229 17.13 9.44868V7.15873H16.6329V6.63829H17.1321V5.65476L17.8076 5.24902V6.63829H18.481V7.15873H17.8055V9.48904C17.8055 9.68235 17.8161 9.80556 17.8416 9.86079C17.865 9.91602 17.9032 9.95851 17.9563 9.99249C18.0095 10.0244 18.0859 10.0414 18.1858 10.0414C18.2601 10.0414 18.36 10.0329 18.481 10.0137Z" fill="black"/>
<path d="M18.8931 8.62699C18.8931 7.89199 19.0971 7.34818 19.507 6.99343C19.849 6.70028 20.2654 6.55371 20.7582 6.55371C21.3042 6.55371 21.7503 6.73215 22.0986 7.09115C22.4449 7.44802 22.6191 7.94298 22.6191 8.57176C22.6191 9.0837 22.5426 9.48306 22.3897 9.77621C22.2367 10.0694 22.0137 10.2967 21.7184 10.4581C21.4252 10.6195 21.1045 10.7003 20.7582 10.7003C20.2017 10.7003 19.7513 10.5218 19.4072 10.1671C19.0652 9.8102 18.8931 9.29613 18.8931 8.62699ZM19.5835 8.62911C19.5835 9.13681 19.694 9.51918 19.917 9.76984C20.1401 10.0226 20.4205 10.1501 20.7582 10.1501C21.0939 10.1501 21.3721 10.0226 21.5952 9.76984C21.8182 9.51493 21.9287 9.12831 21.9287 8.60787C21.9287 8.11717 21.8161 7.74542 21.5931 7.49476C21.37 7.24197 21.0917 7.11452 20.7582 7.11452C20.4205 7.11452 20.1401 7.23985 19.917 7.49051C19.694 7.74117 19.5835 8.12141 19.5835 8.62911Z" fill="black"/>
</svg>
