<svg width="18" height="16" viewBox="0 0 18 16" fill="none" xmlns="http://www.w3.org/2000/svg">
<path fill-rule="evenodd" clip-rule="evenodd" d="M7.83843 15.2998H10.4345C14.4869 15.2998 17.7162 12.0848 17.8429 8.11329V8.05025C17.7795 4.01572 14.4869 0.737659 10.4345 0.800699H7.52183C3.65936 0.926778 0.620039 4.20484 0.746677 8.11329C0.746677 12.0217 3.91264 15.2368 7.83843 15.2998ZM2.01306 8.05028C2.01306 4.77223 4.73579 2.06152 8.02838 2.06152C11.321 2.06152 14.0437 4.77223 14.0437 8.05028C14.0437 11.3283 11.321 14.039 8.02838 14.039C4.73579 14.039 2.01306 11.3283 2.01306 8.05028ZM8.97818 12.0846V4.07861C11.1944 4.64597 12.5874 6.85236 12.0175 9.05874C11.6376 10.5717 10.4978 11.7064 8.97818 12.0846ZM4.1026 7.04147C3.53272 9.24786 4.86243 11.5173 7.0786 12.0846V4.07861C5.62226 4.45685 4.48251 5.59156 4.1026 7.04147Z" fill="#0079BE"/>
</svg>
