<svg width="26" height="10" viewBox="0 0 26 10" fill="none" xmlns="http://www.w3.org/2000/svg">
<path d="M3.82415 2.49561C4.11184 2.40128 4.41961 2.35007 4.73984 2.35007C6.1374 2.35007 7.30315 3.32393 7.5706 4.61763L9.55104 4.22149C9.09661 2.02277 7.11547 0.367676 4.73984 0.367676C4.19594 0.367676 3.6724 0.454596 3.18369 0.614715L3.82415 2.49561Z" fill="#FECA2F"/>
<path d="M1.46727 8.8676L2.65306 7.3365C2.12376 6.80112 1.78968 6.0195 1.78968 5.14827C1.78968 4.27768 2.12344 3.49606 2.6526 2.96109L1.46618 1.43018C0.566777 2.33977 0 3.66843 0 5.14827C0 6.62887 0.567606 7.95801 1.46727 8.8676Z" fill="#1BA7DE"/>
<path d="M7.5712 5.68018C7.30286 6.97366 6.13784 7.9463 4.74151 7.9463C4.42115 7.9463 4.11278 7.89495 3.82506 7.80033L3.18369 9.68219C3.67316 9.8431 4.19686 9.93013 4.74151 9.93013C7.11497 9.93013 9.0948 8.27617 9.55104 6.07829L7.5712 5.68018Z" fill="#EC412A"/>
<path fill-rule="evenodd" clip-rule="evenodd" d="M19.0795 1.43018V6.87144L20.0559 7.26283L19.594 8.33605L18.6284 7.9479C18.4112 7.85685 18.2643 7.71813 18.1527 7.56147C18.0455 7.40117 17.966 7.18208 17.966 6.88641V1.43018H19.0795ZM11.6738 5.47429C11.6981 3.91825 13.0232 2.67615 14.6312 2.69999C15.9959 2.72068 17.1267 3.64505 17.4237 4.87449L12.1453 7.05604C11.8387 6.60277 11.6644 6.05747 11.6738 5.47429ZM12.8816 5.69244C12.8743 5.62715 12.8692 5.56021 12.8711 5.49267C12.8863 4.5759 13.6664 3.84437 14.6138 3.85956C15.1295 3.86622 15.5873 4.09456 15.8969 4.44797L12.8816 5.69244ZM15.7857 6.70264C15.4676 7.00188 15.0362 7.1842 14.5599 7.17765C14.2334 7.17236 13.9309 7.07785 13.6737 6.92035L13.036 7.90285C13.4727 8.16977 13.9876 8.32771 14.5427 8.33602C15.3508 8.34763 16.0873 8.04069 16.6228 7.53386L15.7857 6.70264ZM23.1434 3.85951C22.9532 3.85951 22.7704 3.88923 22.5996 3.94467L22.2197 2.84371C22.5097 2.75007 22.8202 2.69921 23.1434 2.69921C24.5537 2.69921 25.7302 3.66794 26 4.9548L24.8238 5.18666C24.6653 4.42931 23.9732 3.85951 23.1434 3.85951ZM21.2123 7.629L22.007 6.75996C21.6521 6.4561 21.4286 6.0123 21.4286 5.51764C21.4286 5.02347 21.6521 4.5799 22.0067 4.27625L21.2114 3.40721C20.6085 3.92356 20.2286 4.67805 20.2286 5.51764C20.2286 6.35828 20.6088 7.11249 21.2123 7.629ZM23.1433 7.17614C23.9724 7.17614 24.6644 6.60683 24.8238 5.85058L25.9996 6.08344C25.7285 7.36891 24.5524 8.33633 23.1433 8.33633C22.8199 8.33633 22.5089 8.2853 22.2182 8.19122L22.599 7.09065C22.7701 7.14592 22.953 7.17614 23.1433 7.17614Z" fill="black"/>
</svg>
