<svg width="22" height="10" viewBox="0 0 22 10" fill="none" xmlns="http://www.w3.org/2000/svg">
<path d="M6.03945 0H3.75934C2.75188 0.0497125 1.92836 0.473193 1.69058 1.34647C1.56659 1.80191 1.49835 2.3021 1.4014 2.77421C0.908513 5.17479 0.471467 7.64144 0 9.99406H17.7513C19.1236 9.99406 20.0659 9.69141 20.3205 8.55474C20.4388 8.0267 20.5521 7.42857 20.6653 6.84842C21.1065 4.58644 21.5481 2.32459 22 0H6.03945Z" fill="#B82126"/>
<path d="M15.198 5.97082C14.9518 6.22235 14.2608 6.29379 14.3315 5.69256C14.3902 5.19321 14.9111 5.0871 15.4757 5.15922C15.4337 5.43235 15.3856 5.77918 15.198 5.97082ZM14.4203 4.02299C14.3968 4.16075 14.3607 4.2854 14.3315 4.41717C14.6134 4.34343 15.4912 4.11726 15.5758 4.50991C15.6038 4.64038 15.5554 4.77899 15.5202 4.88096C14.7264 4.80249 14.0794 4.94011 13.9093 5.53022C13.7953 5.92549 13.922 6.31445 14.1648 6.42304C14.6324 6.63206 15.2011 6.39261 15.398 6.06361C15.3775 6.17751 15.3582 6.29253 15.3646 6.43461H15.7757C15.78 6.02377 15.8373 5.69121 15.8979 5.32152C15.9495 5.0067 16.0466 4.69503 16.0312 4.41717C15.9959 3.78083 14.9858 4.00593 14.4203 4.02299ZM18.542 6.16792C18.2204 6.17512 18.0605 5.9674 18.0532 5.62301C18.0404 5.01984 18.2939 4.34974 18.8086 4.28964C19.0483 4.26168 19.2218 4.31984 19.3975 4.38242C19.2362 5.05991 19.2944 6.15108 18.542 6.16792ZM19.6085 2.97949C19.5676 3.35414 19.5128 3.71443 19.4419 4.05774C18.2701 3.67067 17.5514 4.57042 17.5643 5.68095C17.5669 5.89573 17.6023 6.10872 17.731 6.26066C17.9528 6.52249 18.588 6.58511 18.9086 6.36506C18.9707 6.32247 19.0342 6.24495 19.0753 6.19115C19.1062 6.15063 19.1553 6.04466 19.1641 6.07513C19.1473 6.19286 19.1221 6.30185 19.1197 6.43461H19.553C19.6365 5.18452 19.8947 4.11676 20.0863 2.97949H19.6085ZM7.37678 5.98244C7.12119 6.26493 6.49286 6.26061 6.44359 5.7853C6.42211 5.57848 6.49596 5.36163 6.53246 5.14765C6.56938 4.93107 6.59595 4.72326 6.6324 4.5331C6.88415 4.21229 7.62391 4.17358 7.69897 4.70705C7.76411 5.17021 7.58846 5.74848 7.37678 5.98244ZM7.75453 4.02299C7.35021 3.86448 6.85741 4.05369 6.64379 4.23368C6.64453 4.2416 6.6387 4.24268 6.6324 4.24327C6.63607 4.24007 6.64 4.23687 6.64379 4.23368C6.64375 4.233 6.64371 4.23242 6.64353 4.2317C6.64716 4.15426 6.67326 4.10038 6.67688 4.02299H6.26582C6.09453 5.21234 5.89139 6.36843 5.677 7.51286H6.1547C6.22385 7.06713 6.26953 6.59695 6.36582 6.17953C6.47491 6.61856 7.18728 6.53464 7.48786 6.36506C8.10813 6.01503 8.58652 4.34915 7.75453 4.02299ZM10.0209 4.85778H8.89884C8.93434 4.58856 9.16642 4.29265 9.53205 4.27807C9.8762 4.26433 10.1226 4.40993 10.0209 4.85778ZM9.56539 3.97662C9.22021 4.00435 8.92843 4.10803 8.72107 4.336C8.46673 4.61566 8.26075 5.23391 8.3211 5.79692C8.4072 6.60015 9.3655 6.57133 10.132 6.37663C10.145 6.23567 10.1777 6.11516 10.1986 5.98244C9.88288 6.10575 9.33465 6.27785 9.00991 6.06361C8.76472 5.90181 8.7633 5.49209 8.84328 5.13604C9.35842 5.11893 9.89384 5.12222 10.4097 5.13604C10.4425 4.88366 10.5361 4.6085 10.4542 4.35923C10.346 4.03015 9.95915 3.94497 9.56539 3.97662ZM5.36594 4.02299C5.353 4.02492 5.35386 4.04131 5.35481 4.05774C5.24955 4.87929 5.10711 5.66208 4.95488 6.43461H5.43259C5.54737 5.60752 5.67886 4.7979 5.84364 4.02299H5.36594ZM17.831 4.03456C17.4088 3.81428 17.0573 4.18393 16.92 4.40556C16.9591 4.29184 16.9614 4.13959 16.9978 4.02299H16.5756C16.4618 4.85107 16.3245 5.6547 16.1645 6.43461H16.6534C16.6565 6.11498 16.7166 5.87854 16.7644 5.56502C16.8666 4.89573 17.0166 4.16169 17.7644 4.38242C17.7892 4.2692 17.7995 4.1408 17.831 4.03456ZM12.465 5.86647C12.421 5.74776 12.4096 5.5517 12.4206 5.40269C12.4453 5.06765 12.5622 4.65978 12.7428 4.47516C12.9919 4.22031 13.4837 4.26249 13.8759 4.40556C13.8881 4.26758 13.9147 4.14454 13.9315 4.01142C13.2881 3.90175 12.6776 3.96996 12.3539 4.32443C12.0371 4.67144 11.8293 5.469 11.9762 5.97082C12.1481 6.55805 12.9187 6.58997 13.5427 6.36506C13.5703 6.24702 13.5849 6.11543 13.6093 5.99401C13.2684 6.1789 12.6165 6.27497 12.465 5.86647ZM12.1984 4.02299C11.7748 3.84444 11.4418 4.14616 11.2874 4.42879C11.3224 4.30305 11.3369 4.15579 11.3652 4.02299H10.943C10.8398 4.85832 10.6877 5.64255 10.5431 6.43461H11.0208C11.0878 5.96443 11.1167 5.3307 11.2652 4.88096C11.3839 4.52157 11.6946 4.2154 12.1428 4.38242C12.1491 4.24984 12.1855 4.14864 12.1984 4.02299ZM4.4994 3.04905C4.43115 3.51117 4.35428 3.96428 4.2772 4.41717C3.78228 4.42262 3.27697 4.4427 2.79962 4.40556C2.88977 3.96253 2.95444 3.4928 3.04399 3.04905H2.51077C2.31984 4.17934 2.14622 5.32759 1.93307 6.43461H2.47742C2.56284 5.8667 2.64268 5.29302 2.75514 4.75342C3.2193 4.74149 3.7756 4.72069 4.22164 4.76504C4.12967 5.32606 4.01855 5.86706 3.93279 6.43461H4.47718C4.65206 5.28766 4.83639 4.15053 5.05488 3.04905H4.4994ZM5.85477 3.5592C5.95002 3.49077 6.07266 3.17888 5.93255 3.04905C5.88816 3.00794 5.81387 2.99601 5.71035 3.01429C5.61428 3.03122 5.55902 3.06525 5.52149 3.1186C5.4611 3.20441 5.4058 3.46309 5.49923 3.5592C5.59025 3.6528 5.79416 3.60274 5.85477 3.5592Z" fill="white"/>
</svg>
