<svg width="24" height="17" viewBox="0 0 24 17" fill="none" xmlns="http://www.w3.org/2000/svg">
<path d="M24 8.05639C24 3.83428 18.6836 0.392241 12.1269 0.392241C5.56922 0.392241 0.254651 3.83428 0.254651 8.05639C0.254651 8.16543 0.253754 8.4677 0.253754 8.50582C0.253754 12.9841 4.89917 16.6123 12.1251 16.6123C19.3968 16.6123 24 12.9859 24 8.50582V8.05639Z" fill="#28316B"/>
<path d="M23.5448 8.05164C23.5448 12.0318 18.435 15.2593 12.1288 15.2593C5.82446 15.2593 0.713776 12.0318 0.713776 8.05164C0.713776 4.07065 5.82446 0.84312 12.1288 0.84312C18.435 0.84312 23.5448 4.07065 23.5448 8.05164Z" fill="#50B4E9"/>
<path d="M8.33875 5.77834C8.33246 5.78986 8.21839 5.90687 8.29204 5.99906C8.47258 6.22688 9.02945 6.3563 9.59262 6.23219C9.92764 6.15773 10.3561 5.82089 10.7719 5.49556C11.2228 5.14187 11.671 4.7873 12.1201 4.64724C12.5962 4.49743 12.9006 4.56126 13.1027 4.62065C13.3237 4.68713 13.5842 4.82985 13.9982 5.13744C14.7796 5.71717 17.9206 8.42259 18.4622 8.89062C18.9005 8.69561 20.8424 7.86945 23.4822 7.29681C23.2531 5.90776 22.3963 4.6366 21.0984 3.59593C19.2894 4.34585 17.0781 4.73766 14.9162 3.69432C14.9054 3.69166 13.7351 3.14384 12.58 3.17132C10.8644 3.21032 10.1207 3.94341 9.33394 4.71904L8.33875 5.77834Z" fill="white"/>
<path d="M18.3355 9.18464C18.2987 9.15273 14.6431 5.99435 13.814 5.38005C13.3353 5.02547 13.0685 4.93505 12.7883 4.8996C12.6419 4.88187 12.4416 4.90758 12.2997 4.94658C11.9153 5.04941 11.4114 5.38182 10.9641 5.73108C10.5006 6.09629 10.0641 6.43846 9.65902 6.52887C9.14166 6.64322 8.50934 6.5076 8.22012 6.31524C8.10336 6.23812 8.02162 6.1477 7.9821 6.05729C7.87522 5.81263 8.07192 5.6185 8.10336 5.58482L9.11292 4.50868C9.22968 4.39344 9.34824 4.27732 9.4695 4.16297C9.14435 4.20552 8.84346 4.28795 8.54975 4.36773C8.18419 4.46967 7.833 4.56541 7.47642 4.56541C7.32822 4.56541 6.53243 4.43776 6.38153 4.39699C5.46898 4.14878 4.6669 3.91033 3.47051 3.35808C2.03611 4.41206 1.07684 5.73019 0.800201 7.18129C1.00589 7.23536 1.33732 7.33199 1.47654 7.36212C4.72348 8.07482 5.73394 8.80879 5.91807 8.96215C6.11657 8.74408 6.40219 8.6058 6.72195 8.6058C7.08212 8.60757 7.40547 8.78486 7.60217 9.05966C7.78809 8.91428 8.04408 8.79195 8.37551 8.79195C8.5255 8.79195 8.68179 8.81854 8.83987 8.87173C9.20633 8.99495 9.39495 9.23606 9.49285 9.45501C9.6159 9.39916 9.7668 9.35839 9.94464 9.35927C10.1198 9.35927 10.3021 9.39828 10.4844 9.47628C11.0826 9.7298 11.1761 10.3113 11.1222 10.7483C11.1653 10.743 11.2066 10.7412 11.2515 10.7412C11.9602 10.7421 12.5386 11.3103 12.5377 12.0115C12.5377 12.2287 12.4811 12.4317 12.3841 12.6116C12.5772 12.718 13.0694 12.9609 13.5006 12.9068C13.8464 12.8634 13.9775 12.7472 14.0242 12.6816C14.0565 12.6373 14.0907 12.5841 14.0583 12.546L13.144 11.5417C13.144 11.5417 12.9922 11.4016 13.0416 11.3467C13.0937 11.2917 13.1871 11.3715 13.2536 11.4256C13.7179 11.8103 14.2883 12.3891 14.2883 12.3891C14.2972 12.3962 14.3359 12.4689 14.5452 12.5061C14.7266 12.538 15.0472 12.5203 15.27 12.3404C15.3257 12.2952 15.3823 12.2375 15.429 12.1799C15.4254 12.1826 15.4218 12.1861 15.4182 12.1879C15.6526 11.8918 15.3921 11.5922 15.3921 11.5922L14.3233 10.4079C14.3233 10.4079 14.1697 10.2679 14.2218 10.2111C14.2685 10.1633 14.3673 10.2368 14.4338 10.2918C14.7724 10.5701 15.2511 11.0453 15.7092 11.4885C15.799 11.5523 16.2023 11.7988 16.7358 11.453C17.0592 11.243 17.1238 10.9859 17.1158 10.7909C17.0924 10.5338 16.8894 10.3503 16.8894 10.3503L15.429 8.90187C15.429 8.90187 15.2745 8.77156 15.3284 8.70597C15.3733 8.65012 15.473 8.7299 15.5394 8.78486C16.0047 9.16869 17.2649 10.3086 17.2649 10.3086C17.2819 10.3211 17.7184 10.6269 18.2547 10.2883C18.4478 10.1668 18.5708 9.98421 18.5807 9.77235C18.5996 9.40271 18.3355 9.18464 18.3355 9.18464Z" fill="white"/>
<path d="M11.2509 11.0214C11.0246 11.0187 10.7776 11.1517 10.7443 11.1322C10.7264 11.1207 10.7587 11.0311 10.7802 10.9788C10.8009 10.9283 11.0991 10.0427 10.3725 9.73427C9.81559 9.49847 9.47608 9.76352 9.35932 9.88407C9.32788 9.9151 9.31441 9.91244 9.31081 9.87255C9.30004 9.71299 9.22818 9.2813 8.74765 9.13681C8.06054 8.93027 7.61953 9.40274 7.50726 9.57293C7.45786 9.18733 7.12732 8.88772 6.72224 8.88683C6.28213 8.88683 5.92465 9.23875 5.92465 9.6731C5.92465 10.1066 6.28123 10.4585 6.72134 10.4585C6.93511 10.4594 7.12912 10.3752 7.27193 10.2395C7.27642 10.244 7.27822 10.2511 7.27552 10.2661C7.24229 10.4603 7.18121 11.1668 7.9312 11.4548C8.23209 11.5701 8.48718 11.4841 8.69915 11.3369C8.76202 11.2935 8.7719 11.3121 8.76292 11.3706C8.73597 11.5524 8.77011 11.9415 9.32339 12.1622C9.74374 12.3315 9.99254 12.1587 10.1551 12.0098C10.2261 11.9459 10.2458 11.9575 10.2503 12.055C10.2692 12.5815 10.712 12.9981 11.25 12.999C11.8033 12.999 12.2524 12.5576 12.2524 12.0115C12.2524 11.4646 11.8042 11.0276 11.2509 11.0214Z" fill="white"/>
<path d="M11.2509 12.9287C10.7488 12.9287 10.341 12.5431 10.3231 12.0538C10.3213 12.0113 10.3168 11.8996 10.2216 11.8996C10.182 11.8996 10.147 11.9226 10.1084 11.9572C9.99701 12.0591 9.8569 12.1611 9.65211 12.1611C9.5587 12.1611 9.4581 12.1398 9.35122 12.0972C8.82129 11.8854 8.8141 11.5255 8.83566 11.381C8.84105 11.3429 8.84284 11.303 8.8168 11.272L8.78356 11.2436H8.75123C8.72428 11.2436 8.69554 11.2534 8.65872 11.28C8.50513 11.3863 8.35782 11.4369 8.20872 11.4369C8.12609 11.4369 8.04256 11.4218 7.95723 11.389C7.26024 11.1213 7.31503 10.4715 7.34916 10.2756C7.35365 10.2357 7.34377 10.2056 7.31862 10.1843L7.26922 10.1435L7.22341 10.1879C7.08689 10.3182 6.90905 10.3882 6.72223 10.3882C6.32343 10.3882 5.99739 10.0673 5.99739 9.67284C5.99739 9.27837 6.32433 8.95837 6.72312 8.95837C7.0842 8.95837 7.39227 9.22607 7.43808 9.58331L7.46323 9.77478L7.56922 9.61256C7.58179 9.59306 7.8746 9.15604 8.41351 9.15604C8.51501 9.15604 8.62099 9.17377 8.72698 9.20568C9.15721 9.33422 9.22906 9.71804 9.24074 9.87938C9.24882 9.97245 9.31529 9.97689 9.32876 9.97689C9.36469 9.97689 9.39343 9.95384 9.41229 9.93345C9.49313 9.84924 9.66918 9.71095 9.94582 9.71095C10.0725 9.71184 10.2063 9.74021 10.3446 9.7996C11.0272 10.0886 10.7174 10.9449 10.7138 10.9529C10.6554 11.0947 10.6536 11.1576 10.7084 11.1931L10.7353 11.2064H10.7551C10.7856 11.2064 10.8233 11.1931 10.8871 11.1718C10.9796 11.1399 11.1197 11.0929 11.2509 11.0929H11.2518C11.7646 11.0991 12.1823 11.5104 12.1823 12.0121C12.1814 12.5174 11.7637 12.9287 11.2509 12.9287ZM18.4768 8.80767C17.3514 7.83702 14.7484 5.6032 14.0424 5.08108C13.6401 4.78235 13.3652 4.62368 13.1245 4.55365C13.0158 4.52174 12.8658 4.48451 12.6727 4.48451C12.494 4.48451 12.3018 4.51642 12.0997 4.57936C11.6434 4.72119 11.1907 5.07754 10.7506 5.42148L10.729 5.4392C10.3195 5.76009 9.89732 6.09251 9.57756 6.16254C9.43744 6.19356 9.29373 6.20952 9.15092 6.20952C8.79255 6.20952 8.47099 6.10758 8.35064 5.95511C8.32998 5.93029 8.34345 5.8904 8.38926 5.83101L8.39555 5.82303L9.38625 4.76906C10.1623 4.00406 10.8952 3.27984 12.5829 3.24172C12.6107 3.24084 12.6395 3.23995 12.6673 3.23995C13.7173 3.24172 14.7673 3.70533 14.8849 3.75852C15.8703 4.23365 16.8861 4.47476 17.9082 4.47565C18.9735 4.47565 20.072 4.21503 21.227 3.69026C21.0977 3.583 20.963 3.47929 20.8255 3.37646C19.8106 3.81082 18.8441 4.03065 17.9109 4.03065C16.958 4.02888 16.0059 3.80284 15.0825 3.35785C15.0331 3.33568 13.8745 2.79496 12.6673 2.79496C12.6359 2.79496 12.6044 2.79496 12.573 2.79584C11.1557 2.82864 10.3572 3.32593 9.82007 3.76029C9.29733 3.77359 8.84733 3.89769 8.44674 4.00849C8.08837 4.106 7.78029 4.1911 7.4794 4.1911C7.35455 4.1911 7.1318 4.18046 7.11204 4.17957C6.76534 4.16894 5.02016 3.74699 3.63157 3.22754C3.48965 3.32682 3.35313 3.42876 3.2211 3.53336C4.67167 4.1193 6.4366 4.57404 6.99348 4.60861C7.14797 4.62013 7.31323 4.63698 7.4785 4.63698C7.84676 4.63698 8.21411 4.53504 8.57069 4.43753C8.78087 4.37814 9.0126 4.3152 9.25601 4.26822C9.19134 4.33204 9.12667 4.39587 9.0611 4.46058L8.05424 5.53494C7.97609 5.61383 7.80274 5.8248 7.91681 6.08453C7.96172 6.18913 8.05244 6.2893 8.18178 6.3744C8.42159 6.53396 8.85093 6.64122 9.24972 6.64122C9.40062 6.6421 9.54523 6.62703 9.67636 6.59689C10.0985 6.5047 10.5404 6.15633 11.0093 5.78846C11.3829 5.49505 11.9137 5.12363 12.3197 5.01371C12.4338 4.98357 12.5739 4.96496 12.6862 4.96496C12.7194 4.96585 12.7509 4.96585 12.7796 4.96939C13.0482 5.00396 13.3086 5.09349 13.7721 5.43743C14.5984 6.04996 18.2549 9.20746 18.2909 9.23848C18.2936 9.24025 18.5262 9.43793 18.51 9.76946C18.501 9.95295 18.3978 10.1161 18.2181 10.2295C18.0618 10.327 17.9002 10.3767 17.7385 10.3767C17.4933 10.3767 17.3253 10.2632 17.3145 10.2552C17.3002 10.2446 16.0481 9.11083 15.5864 8.73055C15.5137 8.67027 15.4427 8.6162 15.3709 8.6162C15.3313 8.6162 15.2972 8.63216 15.2739 8.66052C15.2011 8.74917 15.2828 8.8715 15.3789 8.95216L16.843 10.4024C16.8448 10.4041 17.0253 10.5717 17.0442 10.7951C17.0559 11.0353 16.9391 11.2365 16.6966 11.3934C16.5241 11.506 16.3499 11.5627 16.1783 11.5627C15.9529 11.5627 15.7966 11.4617 15.7607 11.4369L15.5514 11.2339C15.167 10.8607 14.7709 10.4751 14.4817 10.2366C14.4107 10.1781 14.3353 10.1249 14.2634 10.1249C14.2275 10.1249 14.1951 10.1391 14.1709 10.1639C14.1377 10.2003 14.1143 10.265 14.1969 10.3731C14.2311 10.4183 14.2706 10.4547 14.2706 10.4547L15.3394 11.6381C15.3484 11.6496 15.5586 11.8969 15.3628 12.1433L15.3251 12.1912C15.2927 12.2258 15.2586 12.2568 15.2263 12.2852C15.0439 12.4332 14.8005 12.4483 14.7044 12.4483C14.6523 12.4483 14.602 12.4438 14.5598 12.4359C14.4538 12.4181 14.3829 12.3889 14.3496 12.349L14.337 12.3348C14.2778 12.2763 13.7398 11.7329 13.2943 11.3668C13.2359 11.319 13.1622 11.2569 13.0868 11.2569C13.0491 11.2569 13.0158 11.272 12.9907 11.2995C12.9017 11.3952 13.0338 11.5379 13.0904 11.5893L14.002 12.5804C14.0011 12.5892 13.9886 12.6105 13.9661 12.6415C13.9338 12.6867 13.8233 12.7958 13.4937 12.8365C13.4541 12.841 13.4128 12.8427 13.3724 12.8427C13.0311 12.8427 12.6682 12.6796 12.4805 12.5812C12.5667 12.404 12.6107 12.2089 12.6107 12.0121C12.6107 11.272 12.0018 10.6701 11.2518 10.6701C11.2356 10.6701 11.2194 10.6701 11.2024 10.671C11.2284 10.3332 11.1799 9.69322 10.5144 9.41222C10.3231 9.32978 10.1317 9.28901 9.94582 9.28901C9.80121 9.28901 9.66109 9.31294 9.52906 9.36347C9.39253 9.09842 9.1635 8.90607 8.8644 8.8059C8.69913 8.74917 8.53566 8.7208 8.37669 8.7208C8.09915 8.7208 7.84496 8.80058 7.61772 8.96014C7.39946 8.69332 7.06982 8.53465 6.72312 8.53465C6.42044 8.53465 6.12852 8.65432 5.91206 8.86618C5.62913 8.65166 4.50371 7.94694 1.49388 7.27236C1.34838 7.24045 1.01425 7.1456 0.808567 7.08621C0.774436 7.24665 0.749287 7.40887 0.731323 7.57286C0.731323 7.57286 1.2864 7.70406 1.39598 7.72888C4.47047 8.40346 5.48722 9.10374 5.65877 9.23582C5.60039 9.37411 5.57075 9.52303 5.56985 9.67284C5.56985 10.3004 6.08631 10.8101 6.72223 10.811C6.79318 10.811 6.86324 10.8048 6.9333 10.7924C7.02941 11.2534 7.33479 11.6035 7.80274 11.7826C7.93837 11.8349 8.07759 11.8615 8.21322 11.8615C8.30124 11.8615 8.38836 11.8508 8.47549 11.8295C8.56171 12.0449 8.75662 12.3153 9.19044 12.4891C9.34313 12.5493 9.49493 12.5804 9.64313 12.5804C9.76438 12.5804 9.88294 12.56 9.99522 12.5192C10.2036 13.02 10.6985 13.3516 11.2509 13.3516C11.6164 13.3524 11.9676 13.2053 12.2245 12.9447C12.4437 13.0644 12.9071 13.2815 13.3742 13.2824C13.4353 13.2824 13.4919 13.2798 13.5493 13.2727C14.0137 13.2142 14.2293 13.0351 14.329 12.8959C14.3469 12.8711 14.3631 12.8445 14.3766 12.8188C14.487 12.8498 14.6065 12.8747 14.7457 12.8747C14.999 12.8747 15.2424 12.7904 15.4894 12.6132C15.7301 12.4403 15.9026 12.1939 15.9268 11.9838C15.9277 11.9811 15.9286 11.9776 15.9286 11.974C16.0104 11.9909 16.0948 11.9989 16.1765 11.9989C16.4388 11.9989 16.6957 11.9191 16.9409 11.7604C17.4142 11.4537 17.4969 11.0539 17.4897 10.7915C17.5723 10.8075 17.6567 10.8172 17.7412 10.8172C17.9864 10.8172 18.2271 10.7445 18.4561 10.6001C18.7507 10.4148 18.9268 10.1311 18.9537 9.80137C18.9726 9.5771 18.916 9.35106 18.7956 9.15604C19.5896 8.81831 21.4031 8.16589 23.5399 7.69076C23.5264 7.52677 23.503 7.36544 23.4725 7.20499C20.8884 7.77143 18.96 8.59404 18.4768 8.80767Z" fill="#28316B"/>
</svg>
