<svg width="26" height="8" viewBox="0 0 26 8" fill="none" xmlns="http://www.w3.org/2000/svg">
<path d="M23.8784 0.112305H22.269C21.7825 0.112305 21.4082 0.262012 21.1836 0.748562L18.1146 7.7474H20.2854C20.2854 7.7474 20.6597 6.81172 20.7345 6.58716C20.9591 6.58716 23.0924 6.58716 23.3918 6.58716C23.4667 6.84915 23.6538 7.70997 23.6538 7.70997H25.6L23.8784 0.112305ZM21.3333 5.01523C21.5205 4.56611 22.1567 2.8819 22.1567 2.8819C22.1567 2.91932 22.3439 2.43277 22.4187 2.17079L22.5684 2.84447C22.5684 2.84447 22.9801 4.67839 23.055 5.05266H21.3333V5.01523Z" fill="#3362AB"/>
<path d="M18.2644 5.23977C18.2644 6.8117 16.8421 7.85965 14.6339 7.85965C13.6983 7.85965 12.8 7.67252 12.3135 7.44796L12.6129 5.72632L12.8749 5.8386C13.5486 6.13802 13.9977 6.2503 14.8211 6.2503C15.4199 6.2503 16.0562 6.02573 16.0562 5.50176C16.0562 5.16492 15.7942 4.94035 14.9708 4.56608C14.1848 4.19182 13.1369 3.59298 13.1369 2.5076C13.1369 1.01053 14.5965 0 16.655 0C17.441 0 18.1146 0.149708 18.5263 0.336842L18.2269 1.98363L18.0772 1.83392C17.703 1.68421 17.2164 1.5345 16.5053 1.5345C15.7193 1.57193 15.3451 1.90877 15.3451 2.20819C15.3451 2.54503 15.7942 2.80702 16.5053 3.14386C17.703 3.70527 18.2644 4.34152 18.2644 5.23977Z" fill="#3362AB"/>
<path d="M0 0.187305L0.0374269 0.0375977H3.25614C3.70527 0.0375977 4.04211 0.187305 4.15439 0.673855L4.8655 4.04228C4.15439 2.24579 2.5076 0.786136 0 0.187305Z" fill="#F9B50B"/>
<path d="M9.39415 0.112134L6.13801 7.7098H3.92982L2.05847 1.34722C3.40584 2.20804 4.52865 3.55541 4.94034 4.49108L5.16491 5.27705L7.18596 0.074707H9.39415V0.112134Z" fill="#3362AB"/>
<path d="M10.255 0.074707H12.3135L11.0035 7.7098H8.94507L10.255 0.074707Z" fill="#3362AB"/>
</svg>
